Coordinates
version=1
nRows=9
nColumns=42
inDegrees=yes

Units are S.I. units (second, meters, Newtons, ...)
If the header above contains a line with 'inDegrees', this indicates whether rotational values are in degrees (yes) or radians (no).

endheader
time	pelvis_tilt	pelvis_list	pelvis_rotation	pelvis_tx	pelvis_ty	pelvis_tz	hip_flexion_r	hip_adduction_r	hip_rotation_r	knee_angle_r	knee_angle_r_beta	ankle_angle_r	subtalar_angle_r	mtp_angle_r	hip_flexion_l	hip_adduction_l	hip_rotation_l	knee_angle_l	knee_angle_l_beta	ankle_angle_l	subtalar_angle_l	mtp_angle_l	lumbar_extension	lumbar_bending	lumbar_rotation	sh_tx_r	sh_ty_r	sh_tz_r	sh_plane_elev_r	sh_elev_r	sh_axial_rot_r	elbow_flex_r	pro_sup_r	sh_tx_l	sh_ty_l	sh_tz_l	sh_plane_elev_l	sh_elev_l	sh_axial_rot_l	elbow_flex_l	pro_sup_l
      8.22033900	     -8.45271626	     -1.11103124	      2.11842117	      0.29887610	      0.93177308	     -0.03690583	      5.04967116	     -6.77517127	     -6.89603148	      0.56445985	      0.00985168	      2.81915809	     -3.08958230	     -7.49999987	      6.26094945	     -5.20581395	    -12.10736800	      1.15374074	      0.02013657	      8.02120043	      3.01988313	     -7.49999987	      3.42025229	      9.81591793	     -3.17643685	     -0.01324287	     -0.01331077	     -0.00666860	     -3.42836638	      7.27997103	      3.33997511	     34.09815181	     82.95439465	     -0.02266568	      0.03364887	     -0.00589180	     -0.22449118	     60.19665566	     15.55640507	     86.75360204	     74.15150581
      8.23728810	     -8.16357217	     -1.17271946	      1.96255183	      0.29488494	      0.93204331	     -0.03217638	      4.84774947	     -6.60972736	     -6.76214467	      0.55464548	      0.00968039	      2.90152366	     -3.22791633	     -7.49999987	      5.94713688	     -5.34114366	    -12.39610776	      1.13936942	      0.01988575	      8.08193678	      3.01496982	     -7.49999987	      3.00894523	      9.79988985	     -3.00892673	     -0.01191195	     -0.01307987	     -0.00671476	     -3.47722228	      6.97452636	      2.98682331	     34.24359847	     83.27115529	     -0.02219767	      0.03346526	     -0.00588773	     -0.24553558	     60.47068955	     15.12895840	     86.96688648	     74.33853907
      8.25423730	     -8.14757717	     -1.23187228	      1.95307706	      0.29504435	      0.93244992	     -0.03227325	      4.91000551	     -6.47674237	     -6.78493111	      0.55116436	      0.00961963	      2.91139261	     -3.24410166	     -7.49999987	      5.99258285	     -5.46228815	    -12.42230832	      1.14934844	      0.02005991	      8.03315719	      3.02492203	     -7.49999987	      2.99652921	      9.73245702	     -2.94143231	     -0.01140051	     -0.01334960	     -0.00669592	     -3.44624898	      6.86060631	      2.97200344	     34.28388269	     83.30889632	     -0.02094440	      0.03402652	     -0.00581252	     -0.26956898	     60.56025518	     15.04366116	     86.98523457	     74.35524730
      8.27118640	     -8.18826489	     -1.25234813	      1.97113950	      0.29875137	      0.93231584	     -0.03692425	      4.96983128	     -6.44893169	     -6.83982270	      0.58679219	      0.01024146	      2.95658978	     -3.28122109	     -7.49999987	      6.08706371	     -5.49848232	    -12.46496255	      1.18999698	      0.02076937	      8.04951415	      3.00311311	     -7.49999987	      2.95799059	      9.74241975	     -2.93188055	     -0.01210618	     -0.01326416	     -0.00658021	     -3.44214448	      6.94371563	      2.96036147	     34.29647959	     83.30177306	     -0.02201829	      0.03427802	     -0.00594388	     -0.24872499	     60.55692947	     14.99366899	     87.07524571	     74.35055263
      8.28813560	     -8.06259449	     -1.26952164	      2.02517858	      0.29875817	      0.93568612	     -0.03687741	      4.79046123	     -6.43443909	     -6.85578838	      0.55130897	      0.00962216	      2.87866257	     -3.31735530	     -7.49999987	      5.95911296	     -5.50296131	    -12.67138013	      1.19859506	      0.02091943	      8.02997091	      3.38614656	     -7.49999987	      2.63349469	      9.78383968	     -2.64042780	     -0.01410180	     -0.01307954	     -0.00660262	     -2.91730996	      7.11574770	      1.54257105	     33.98847412	     87.22610898	     -0.02102954	      0.03300983	     -0.00584675	     -0.43335846	     60.16547152	     14.10930251	     88.06789679	     77.00288465
      8.30508480	     -8.24565206	     -1.26367064	      2.14539238	      0.29860240	      0.93511970	     -0.03710322	      4.93893000	     -6.48045015	     -7.14964382	      0.54570019	      0.00952427	      2.90280331	     -3.14136899	     -7.49999987	      6.20740849	     -5.44740727	    -12.54974290	      1.22843425	      0.02144022	      7.89314080	      3.27840109	     -7.49999987	      2.94913537	      9.72323259	     -2.79709339	     -0.01415962	     -0.01321443	     -0.00660108	     -2.66835802	      7.22853820	      2.03715378	     33.62511019	     85.94344259	     -0.02101311	      0.03290406	     -0.00578976	     -0.42687806	     59.77175798	     13.92747614	     88.36917128	     76.28429871
      8.32203390	     -8.27528880	     -1.24545143	      2.17914217	      0.29869614	      0.93502532	     -0.03701173	      4.93705038	     -6.50889921	     -7.23379087	      0.54245061	      0.00946755	      2.92925890	     -3.05154889	     -7.49999987	      6.25050128	     -5.39984105	    -12.50799640	      1.23614423	      0.02157479	      7.94568302	      3.33996249	     -7.49999987	      3.04032104	      9.64233945	     -2.98061145	     -0.01369476	     -0.01309424	     -0.00653332	     -2.55999542	      7.23720452	      2.25634151	     33.34837762	     85.43725233	     -0.02103959	      0.03222023	     -0.00565229	     -0.42755593	     59.43613895	     13.89033207	     88.60643749	     76.02862525
      8.33898300	     -7.98493721	     -1.22297177	      2.23227199	      0.29845728	      0.93211101	     -0.03724729	      4.59179238	     -6.55991325	     -7.28428091	      0.52387682	      0.00914338	      2.98595547	     -3.08510750	     -7.49999987	      5.90768087	     -5.36756591	    -12.55519575	      1.20823014	      0.02108759	      7.95073100	      3.30287084	     -7.49999987	      2.70997682	      9.64847311	     -3.34569096	     -0.01240151	     -0.01304391	     -0.00657539	     -2.39911125	      7.34352235	      3.01596712	     33.81244113	     82.16052348	     -0.02167957	      0.03185100	     -0.00567446	     -0.84154842	     59.05709147	     13.66233150	     88.77837565	     74.17478771
      8.35593220	     -7.91857805	     -1.18909329	      2.26839384	      0.29855459	      0.93568329	     -0.03740845	      4.49062569	     -6.63795405	     -7.20087294	      0.51568715	      0.00900044	      3.00164629	     -3.05613596	     -7.49999987	      5.82920563	     -5.32717770	    -12.65921870	      1.25728570	      0.02194378	      7.91669788	      3.53068953	     -7.49999987	      2.50906276	      9.57160004	     -3.26065248	     -0.01391041	     -0.01308286	     -0.00651393	     -2.31089798	      7.53152160	      2.89570058	     34.16495561	     83.03302900	     -0.02214544	      0.03164070	     -0.00554976	     -0.74548350	     58.15542310	     12.55908714	     88.85533883	     74.78751794
